<svg width="16" height="17" viewBox="0 0 16 17" fill="none" xmlns="http://www.w3.org/2000/svg">
<path d="M5.91385 16.336C4.66585 16.336 3.64185 16.056 2.84185 15.496C2.05785 14.92 1.47385 14.168 1.08985 13.24C0.705846 12.296 0.513846 11.272 0.513846 10.168C0.513846 9.016 0.713846 7.848 1.11385 6.664C1.52985 5.48 2.13785 4.392 2.93785 3.4C3.73785 2.392 4.71385 1.584 5.86585 0.975999C7.03385 0.367999 8.36985 0.0639992 9.87385 0.0639992C11.1218 0.0639992 12.1458 0.351999 12.9458 0.927999C13.7458 1.488 14.3298 2.24 14.6978 3.184C15.0818 4.112 15.2738 5.128 15.2738 6.232C15.2738 7.384 15.0658 8.552 14.6498 9.736C14.2498 10.92 13.6498 12.016 12.8498 13.024C12.0498 14.016 11.0658 14.816 9.89785 15.424C8.74585 16.032 7.41785 16.336 5.91385 16.336ZM5.98585 15.592C6.84985 15.592 7.64985 15.392 8.38585 14.992C9.13785 14.576 9.80985 14.024 10.4018 13.336C11.0098 12.632 11.5218 11.84 11.9378 10.96C12.3538 10.064 12.6738 9.136 12.8978 8.176C13.1218 7.2 13.2338 6.248 13.2338 5.32C13.2338 4.568 13.1138 3.84 12.8738 3.136C12.6498 2.432 12.2818 1.856 11.7698 1.408C11.2738 0.959999 10.6178 0.735999 9.80185 0.735999C8.96985 0.735999 8.18585 0.943999 7.44985 1.36C6.71385 1.776 6.04985 2.336 5.45785 3.04C4.86585 3.744 4.34585 4.544 3.89785 5.44C3.46585 6.32 3.12985 7.248 2.88985 8.224C2.66585 9.2 2.55385 10.152 2.55385 11.08C2.55385 11.832 2.66585 12.552 2.88985 13.24C3.12985 13.928 3.49785 14.496 3.99385 14.944C4.50585 15.376 5.16985 15.592 5.98585 15.592Z" fill="#C7C7BA"/>
</svg>
