<svg width="250" height="87" viewBox="0 0 250 87" fill="none" xmlns="http://www.w3.org/2000/svg">
<g clip-path="url(#clip0_5_4)">
<path d="M52.1148 59.896C49.3841 59.896 46.8241 59.5547 44.4348 58.872C42.0454 58.1467 39.9334 57.08 38.0988 55.672C36.3068 54.264 34.8988 52.4933 33.8748 50.36C32.8934 48.184 32.4028 45.6453 32.4028 42.744C32.4028 39.032 33.0854 35.5973 34.4508 32.44C35.8588 29.24 37.8214 26.4667 40.3388 24.12C42.8561 21.7307 45.8001 19.8747 49.1708 18.552C52.5414 17.2293 56.1894 16.568 60.1147 16.568C61.4801 16.568 62.6534 16.696 63.6348 16.952C64.6588 17.208 65.5548 17.4853 66.3228 17.784C66.9628 18.04 67.5388 18.2747 68.0508 18.488C68.6054 18.6587 69.1388 18.744 69.6508 18.744C69.8641 18.744 70.0988 18.68 70.3548 18.552C70.6108 18.424 70.8668 18.296 71.1228 18.168C71.3361 18.04 71.5494 17.9333 71.7628 17.848C71.9761 17.7627 72.1894 17.72 72.4028 17.72C72.7868 17.72 72.9788 17.848 72.9788 18.104C73.0214 18.36 72.9788 18.5733 72.8508 18.744C72.3814 19.384 71.8481 20.2373 71.2508 21.304C70.6534 22.3707 70.0988 23.48 69.5868 24.632C69.1174 25.784 68.7761 26.8507 68.5628 27.832C68.4774 28.2587 68.3068 28.6213 68.0508 28.92C67.8374 29.176 67.6241 29.304 67.4108 29.304C66.5574 29.304 66.2374 28.6853 66.4508 27.448C66.6214 26.4667 66.6428 25.464 66.5148 24.44C66.4294 23.416 66.0454 22.456 65.3628 21.56C64.8081 20.8347 63.9974 20.1307 62.9308 19.448C61.9068 18.7653 60.5628 18.424 58.8988 18.424C55.9548 18.424 53.2028 19.1707 50.6428 20.664C48.1254 22.1147 45.9068 24.0773 43.9868 26.552C42.1094 29.0267 40.6374 31.8213 39.5708 34.936C38.5468 38.008 38.0348 41.1653 38.0348 44.408C38.0348 46.5413 38.4614 48.4613 39.3148 50.168C40.1681 51.832 41.2774 53.2613 42.6428 54.456C44.0508 55.6507 45.5654 56.568 47.1868 57.208C48.8508 57.8053 50.4934 58.104 52.1148 58.104C54.0774 58.104 55.6348 57.5707 56.7868 56.504C57.9388 55.3947 58.7068 54.0933 59.0908 52.6L60.8828 45.624C61.0961 44.8133 61.0961 44.216 60.8828 43.832C60.7121 43.448 60.3281 43.1707 59.7308 43C59.1761 42.8293 58.6428 42.7013 58.1308 42.616C57.6188 42.488 57.1921 42.4027 56.8508 42.36C56.4241 42.2747 55.9761 42.168 55.5068 42.04C55.0801 41.912 54.8668 41.6987 54.8668 41.4C54.8668 41.1013 55.0588 40.8667 55.4428 40.696C55.8694 40.5253 56.3601 40.44 56.9148 40.44C57.8961 40.44 58.7708 40.4827 59.5387 40.568C60.3067 40.6107 61.0534 40.6747 61.7788 40.76C62.5468 40.8027 63.4214 40.824 64.4028 40.824C65.4694 40.824 66.3654 40.76 67.0908 40.632C67.8588 40.504 68.7761 40.44 69.8428 40.44C70.7388 40.44 71.1868 40.7387 71.1868 41.336C71.1868 41.5493 71.0161 41.784 70.6748 42.04C70.3334 42.296 69.8214 42.488 69.1388 42.616C68.2001 42.7867 67.4534 43.0853 66.8988 43.512C66.3441 43.896 65.8748 44.5147 65.4908 45.368C65.1068 46.1787 64.7228 47.1387 64.3388 48.248C63.9974 49.3147 63.7201 50.3173 63.5068 51.256C63.2934 52.152 63.1868 52.7707 63.1868 53.112C63.1868 53.496 63.2294 53.8373 63.3148 54.136C63.4428 54.4347 63.6348 54.776 63.8908 55.16C63.6348 55.7573 63.0588 56.3547 62.1628 56.952C61.3094 57.5067 60.2641 58.0187 59.0268 58.488C57.8321 58.9147 56.6161 59.256 55.3788 59.512C54.1414 59.768 53.0534 59.896 52.1148 59.896ZM77.2363 59.896C76.7243 59.896 76.2123 59.7467 75.7003 59.448C75.1883 59.192 74.7616 58.8507 74.4203 58.424C74.1216 57.9973 73.9723 57.5493 73.9723 57.08C73.9723 55.544 74.4843 53.7733 75.5083 51.768C76.5323 49.72 77.9616 47.5867 79.7963 45.368C81.6309 43.1067 83.7429 40.9307 86.1323 38.84C88.4363 36.8347 90.3136 35.3413 91.7643 34.36C93.2149 33.336 94.2816 32.824 94.9643 32.824C95.6469 32.824 96.2443 33.1227 96.7563 33.72C97.3536 34.488 97.6096 34.8507 97.5243 34.808C97.4816 34.7227 97.4816 34.68 97.5243 34.68C97.6096 34.68 97.6736 34.6587 97.7163 34.616C97.8016 34.5307 97.8656 34.424 97.9083 34.296C98.5056 33.272 98.8683 32.6533 98.9963 32.44C99.1243 32.2267 99.1243 32.2053 98.9963 32.376C99.2523 31.9493 99.5083 31.736 99.7643 31.736C100.148 31.736 100.532 31.8 100.916 31.928C101.3 32.056 101.599 32.2267 101.812 32.44C102.068 32.6533 102.196 32.8667 102.196 33.08C102.196 33.2933 102.047 33.8267 101.748 34.68L94.5803 53.688C94.0256 55.1387 94.3029 55.864 95.4123 55.864C96.1803 55.864 97.0976 55.5013 98.1643 54.776C99.2736 54.008 100.234 53.0907 101.044 52.024C101.13 51.9387 101.215 51.8747 101.3 51.832C101.428 51.7467 101.535 51.704 101.62 51.704C101.791 51.704 101.898 51.768 101.94 51.896C102.026 51.9813 102.068 52.152 102.068 52.408C102.068 52.7067 101.77 53.304 101.172 54.2C100.575 55.0533 99.9563 55.8 99.3163 56.44C98.1216 57.5493 96.9056 58.4027 95.6683 59C94.4736 59.5973 93.3643 59.896 92.3403 59.896C91.9136 59.896 91.4869 59.768 91.0603 59.512C90.6336 59.256 90.2709 58.936 89.9723 58.552C89.7163 58.168 89.5883 57.784 89.5883 57.4C89.5883 56.9307 89.7163 56.44 89.9723 55.928C89.8016 56.312 89.7803 56.312 89.9083 55.928C90.0789 55.544 90.3349 54.9467 90.6763 54.136C91.0603 53.3253 91.4656 52.472 91.8923 51.576C92.3189 50.68 92.6816 49.8907 92.9803 49.208C93.1936 48.7387 93.2789 48.3973 93.2363 48.184C93.2363 47.928 93.1083 47.9493 92.8523 48.248C90.2496 51.1493 88.0096 53.4533 86.1323 55.16C84.2976 56.8667 82.6763 58.0827 81.2683 58.808C79.8603 59.5333 78.5163 59.896 77.2363 59.896ZM80.8203 55.864C81.7589 55.864 83.1456 55.096 84.9803 53.56C86.8576 51.9813 88.9696 49.8053 91.3163 47.032C92.9376 45.1547 94.2176 43.4267 95.1563 41.848C96.0949 40.2693 96.5643 39.096 96.5643 38.328C96.5643 37.9867 96.2869 37.5813 95.7323 37.112C95.4763 36.8987 95.1989 36.728 94.9003 36.6C94.6016 36.472 94.3456 36.408 94.1323 36.408C93.3643 36.408 92.2976 36.792 90.9323 37.56C89.6096 38.328 88.3936 39.2453 87.2843 40.312C85.8763 41.6773 84.5323 43.2133 83.2523 44.92C81.9723 46.6267 80.9269 48.2693 80.1163 49.848C79.3483 51.4267 78.9643 52.7067 78.9643 53.688C78.9643 54.328 79.1349 54.8613 79.4763 55.288C79.8176 55.672 80.2656 55.864 80.8203 55.864ZM111.776 60.024C111.52 60.024 111.264 59.9173 111.008 59.704C110.794 59.5333 110.602 59.2987 110.432 59C110.261 58.744 110.133 58.4453 110.048 58.104C110.005 57.7627 110.048 57.464 110.176 57.208L117.6 39.032C118.368 37.1547 118.41 36.216 117.728 36.216C117.301 36.216 116.853 36.28 116.384 36.408C115.914 36.4933 115.402 36.7493 114.848 37.176C114.293 37.6027 113.674 38.264 112.992 39.16C112.821 39.3307 112.629 39.416 112.416 39.416C112.245 39.3733 112.117 39.2027 112.032 38.904C112.032 38.648 112.096 38.328 112.224 37.944C112.394 37.5173 112.586 37.112 112.8 36.728C113.013 36.3013 113.205 35.96 113.376 35.704C114.016 34.7227 114.869 33.9547 115.936 33.4C117.045 32.8453 118.325 32.5467 119.776 32.504C120.245 32.504 120.672 32.632 121.056 32.888C121.44 33.1013 121.717 33.4213 121.888 33.848C122.101 34.2747 122.101 34.744 121.888 35.256L117.664 46.136C117.536 46.4347 117.557 46.6053 117.728 46.648C117.941 46.6907 118.112 46.6053 118.24 46.392C119.989 43.4053 121.76 40.888 123.552 38.84C125.386 36.7493 127.136 35.1707 128.8 34.104C130.464 33.0373 131.936 32.504 133.216 32.504C134.112 32.504 134.88 32.824 135.52 33.464C136.202 34.0613 136.629 34.8933 136.8 35.96C137.013 36.984 136.821 38.1787 136.224 39.544L130.336 53.496C129.696 55.032 129.802 55.8 130.656 55.8C131.168 55.8 131.786 55.608 132.512 55.224C133.28 54.84 134.048 54.392 134.816 53.88C135.584 53.3253 136.245 52.8347 136.8 52.408C137.397 51.9387 137.781 51.6187 137.952 51.448C137.994 51.4053 138.016 51.384 138.016 51.384C138.058 51.384 138.101 51.384 138.144 51.384C138.272 51.384 138.378 51.448 138.464 51.576C138.592 51.6613 138.656 51.7893 138.656 51.96C138.656 52.3013 138.57 52.6 138.4 52.856C137.29 54.1787 136.096 55.3733 134.816 56.44C133.578 57.5067 132.277 58.36 130.912 59C129.589 59.5973 128.245 59.896 126.88 59.896C126.496 59.896 126.112 59.7467 125.728 59.448C125.344 59.192 125.045 58.8507 124.832 58.424C124.661 57.9973 124.682 57.5493 124.896 57.08C126.133 54.2213 127.37 51.384 128.608 48.568C129.888 45.7093 131.082 42.8507 132.192 39.992C132.874 38.2427 133.109 37.0267 132.896 36.344C132.682 35.6187 132.277 35.2347 131.68 35.192C131.21 35.1493 130.656 35.32 130.016 35.704C129.376 36.0453 128.65 36.6 127.84 37.368C127.029 38.0933 126.154 39.032 125.216 40.184C124.704 40.7813 124.021 41.72 123.168 43C122.314 44.2373 121.354 45.688 120.288 47.352C119.221 48.9733 118.112 50.7227 116.96 52.6C115.85 54.4347 114.784 56.248 113.76 58.04C113.376 58.7227 113.034 59.2133 112.736 59.512C112.437 59.8533 112.117 60.024 111.776 60.024ZM146.358 59.896C145.419 59.896 144.608 59.6187 143.926 59.064C143.243 58.552 142.902 57.8907 142.902 57.08C142.902 56.0987 143.136 55.3733 143.606 54.904C144.032 54.392 144.395 54.136 144.694 54.136C144.992 54.136 145.291 54.264 145.59 54.52C145.931 54.7333 146.294 55.0107 146.678 55.352C147.147 55.6933 147.659 56.0347 148.214 56.376C148.811 56.6747 149.579 56.824 150.518 56.824C151.67 56.824 152.587 56.4187 153.27 55.608C153.952 54.7547 154.315 53.8587 154.358 52.92C154.358 51.9813 154.187 50.9787 153.846 49.912C153.547 48.8027 153.099 47.7147 152.502 46.648C151.947 45.624 151.478 44.664 151.094 43.768C150.752 42.8293 150.582 42.04 150.582 41.4C150.582 40.1627 150.902 39.0107 151.542 37.944C152.224 36.8347 153.035 35.8747 153.974 35.064C154.955 34.2533 155.915 33.6347 156.854 33.208C157.792 32.7387 158.539 32.504 159.094 32.504C159.648 32.504 160.203 32.6747 160.758 33.016C161.312 33.3147 161.76 33.6773 162.102 34.104C162.486 34.488 162.678 34.8293 162.678 35.128C162.678 35.384 162.55 35.704 162.294 36.088C162.038 36.4293 161.739 36.7493 161.398 37.048C161.056 37.3467 160.758 37.496 160.502 37.496C160.288 37.496 160.075 37.3893 159.862 37.176C159.648 36.9627 159.414 36.728 159.158 36.472C158.902 36.216 158.582 35.9813 158.198 35.768C157.856 35.5547 157.387 35.448 156.79 35.448C156.107 35.448 155.51 35.7467 154.998 36.344C154.486 36.8987 154.23 37.6453 154.23 38.584C154.23 38.9253 154.336 39.4587 154.55 40.184C154.806 40.9093 155.083 41.656 155.382 42.424C155.723 43.192 156.043 43.8747 156.342 44.472C156.811 45.3253 157.238 46.4133 157.622 47.736C158.048 49.016 158.262 50.1467 158.262 51.128C158.262 52.408 157.878 53.5813 157.11 54.648C156.384 55.7147 155.424 56.6533 154.23 57.464C153.035 58.232 151.734 58.8293 150.326 59.256C148.96 59.6827 147.638 59.896 146.358 59.896ZM168.461 59.896C167.949 59.896 167.437 59.7467 166.925 59.448C166.413 59.192 165.987 58.8507 165.645 58.424C165.347 57.9973 165.197 57.5493 165.197 57.08C165.197 55.544 165.709 53.7733 166.733 51.768C167.757 49.72 169.187 47.5867 171.021 45.368C172.856 43.1067 174.968 40.9307 177.357 38.84C179.661 36.8347 181.539 35.3413 182.989 34.36C184.44 33.336 185.507 32.824 186.189 32.824C186.872 32.824 187.469 33.1227 187.981 33.72C188.579 34.488 188.835 34.8507 188.749 34.808C188.707 34.7227 188.707 34.68 188.749 34.68C188.835 34.68 188.899 34.6587 188.941 34.616C189.027 34.5307 189.091 34.424 189.133 34.296C189.731 33.272 190.093 32.6533 190.221 32.44C190.349 32.2267 190.349 32.2053 190.221 32.376C190.477 31.9493 190.733 31.736 190.989 31.736C191.373 31.736 191.757 31.8 192.141 31.928C192.525 32.056 192.824 32.2267 193.037 32.44C193.293 32.6533 193.421 32.8667 193.421 33.08C193.421 33.2933 193.272 33.8267 192.973 34.68L185.805 53.688C185.251 55.1387 185.528 55.864 186.637 55.864C187.405 55.864 188.323 55.5013 189.389 54.776C190.499 54.008 191.459 53.0907 192.269 52.024C192.355 51.9387 192.44 51.8747 192.525 51.832C192.653 51.7467 192.76 51.704 192.845 51.704C193.016 51.704 193.123 51.768 193.165 51.896C193.251 51.9813 193.293 52.152 193.293 52.408C193.293 52.7067 192.995 53.304 192.397 54.2C191.8 55.0533 191.181 55.8 190.541 56.44C189.347 57.5493 188.131 58.4027 186.893 59C185.699 59.5973 184.589 59.896 183.565 59.896C183.139 59.896 182.712 59.768 182.285 59.512C181.859 59.256 181.496 58.936 181.197 58.552C180.941 58.168 180.813 57.784 180.813 57.4C180.813 56.9307 180.941 56.44 181.197 55.928C181.027 56.312 181.005 56.312 181.133 55.928C181.304 55.544 181.56 54.9467 181.901 54.136C182.285 53.3253 182.691 52.472 183.117 51.576C183.544 50.68 183.907 49.8907 184.205 49.208C184.419 48.7387 184.504 48.3973 184.461 48.184C184.461 47.928 184.333 47.9493 184.077 48.248C181.475 51.1493 179.235 53.4533 177.357 55.16C175.523 56.8667 173.901 58.0827 172.493 58.808C171.085 59.5333 169.741 59.896 168.461 59.896ZM172.045 55.864C172.984 55.864 174.371 55.096 176.205 53.56C178.083 51.9813 180.195 49.8053 182.541 47.032C184.163 45.1547 185.443 43.4267 186.381 41.848C187.32 40.2693 187.789 39.096 187.789 38.328C187.789 37.9867 187.512 37.5813 186.957 37.112C186.701 36.8987 186.424 36.728 186.125 36.6C185.827 36.472 185.571 36.408 185.357 36.408C184.589 36.408 183.523 36.792 182.157 37.56C180.835 38.328 179.619 39.2453 178.509 40.312C177.101 41.6773 175.757 43.2133 174.477 44.92C173.197 46.6267 172.152 48.2693 171.341 49.848C170.573 51.4267 170.189 52.7067 170.189 53.688C170.189 54.328 170.36 54.8613 170.701 55.288C171.043 55.672 171.491 55.864 172.045 55.864ZM203.193 59.896C202.467 59.896 201.87 59.6613 201.401 59.192C200.931 58.7227 200.697 58.232 200.697 57.72C200.697 57.5493 200.697 57.3787 200.697 57.208C200.739 57.0373 200.803 56.8667 200.889 56.696C202.638 53.1547 204.11 49.8267 205.305 46.712C206.499 43.5547 207.566 40.8027 208.505 38.456C208.675 37.944 208.569 37.688 208.185 37.688C207.971 37.688 207.545 37.816 206.905 38.072C206.307 38.2853 205.667 38.584 204.985 38.968C204.302 39.352 203.705 39.736 203.193 40.12C202.979 40.2907 202.766 40.3333 202.553 40.248C202.339 40.1627 202.233 40.0133 202.233 39.8C202.233 39.5867 202.382 39.288 202.681 38.904C203.022 38.4773 203.47 38.008 204.025 37.496C204.622 36.984 205.326 36.4507 206.137 35.896C206.947 35.2987 207.822 34.7227 208.761 34.168C209.742 33.5707 210.766 33.0373 211.833 32.568C212.217 32.3973 212.601 32.44 212.985 32.696C213.369 32.952 213.667 33.272 213.881 33.656C214.137 34.04 214.222 34.3387 214.137 34.552L206.329 53.048C206.158 53.3893 206.03 53.7307 205.945 54.072C205.902 54.3707 205.881 54.648 205.881 54.904C205.881 55.2027 205.987 55.416 206.201 55.544C206.457 55.6293 206.691 55.672 206.905 55.672C207.502 55.672 208.185 55.3947 208.953 54.84C209.721 54.2427 210.531 53.5387 211.385 52.728C212.281 51.8747 213.134 51.0427 213.945 50.232C214.03 50.1467 214.115 50.104 214.201 50.104C214.286 50.104 214.371 50.1467 214.457 50.232C214.542 50.2747 214.585 50.3387 214.585 50.424C214.585 51.1067 214.179 51.9813 213.369 53.048C212.558 54.072 211.534 55.1173 210.297 56.184C209.102 57.208 207.865 58.0827 206.585 58.808C205.305 59.5333 204.174 59.896 203.193 59.896ZM216.121 26.168C215.481 26.168 214.947 25.912 214.521 25.4C214.094 24.888 213.881 24.312 213.881 23.672C213.881 22.648 214.222 21.752 214.905 20.984C215.587 20.1733 216.441 19.768 217.465 19.768C218.147 19.768 218.681 20.0667 219.065 20.664C219.449 21.2187 219.641 21.8373 219.641 22.52C219.641 23.4587 219.299 24.312 218.617 25.08C217.934 25.8053 217.102 26.168 216.121 26.168Z" fill="#141413"/>
<path d="M117.064 65.484C117.04 65.688 117.016 65.928 117.004 66.288C116.98 66.768 116.98 68.376 116.98 69.384C116.98 70.968 117.16 73.068 117.16 73.872C117.16 74.712 116.608 75.564 115.048 75.564C113.32 75.564 112.372 74.952 112.372 73.788C112.372 72.696 113.416 71.964 115.144 71.964C117.676 71.964 119.656 73.332 120.58 74.088L120.028 74.94C118.948 73.944 117.172 72.744 115.036 72.744C113.884 72.744 113.272 73.188 113.272 73.74C113.272 74.304 113.74 74.712 114.928 74.712C115.624 74.712 116.212 74.508 116.212 73.668C116.212 72.744 116.092 70.44 116.092 69.384C116.092 68.304 116.092 67.044 116.092 66.204C116.092 66 116.08 65.64 116.044 65.484H117.064ZM112.48 66.78C113.248 66.924 114.748 67.044 115.54 67.044C117.064 67.044 118.672 66.936 120.232 66.684V67.56C118.876 67.716 117.16 67.872 115.552 67.872C114.724 67.872 113.248 67.764 112.492 67.668L112.48 66.78ZM112.42 69.336C113.272 69.468 114.64 69.552 115.432 69.552C117.172 69.552 118.768 69.432 120.328 69.204V70.104C118.696 70.308 117.232 70.392 115.432 70.392C114.604 70.392 113.284 70.332 112.432 70.236L112.42 69.336ZM128.104 65.568C128.032 65.832 127.948 66.288 127.9 66.516C127.72 67.38 127.468 68.736 127.132 69.936C126.7 71.64 125.896 74.124 125.26 75.432L124.216 75.084C124.936 73.836 125.776 71.4 126.232 69.708C126.52 68.604 126.832 67.092 126.916 66.468C126.964 66.132 126.988 65.724 126.964 65.472L128.104 65.568ZM125.452 67.572C126.772 67.572 128.536 67.356 130.024 66.984V67.92C128.536 68.256 126.724 68.46 125.428 68.46C124.9 68.46 124.48 68.448 124.036 68.412L124.012 67.476C124.576 67.548 125.008 67.572 125.452 67.572ZM129.244 69.216C129.868 69.156 130.672 69.12 131.44 69.12C132.136 69.12 132.868 69.144 133.516 69.216L133.492 70.128C132.868 70.056 132.172 69.984 131.464 69.984C130.72 69.984 129.976 70.032 129.244 70.116V69.216ZM129.484 72.132C129.388 72.528 129.316 72.9 129.316 73.212C129.316 73.776 129.64 74.328 131.344 74.328C132.136 74.328 132.952 74.244 133.696 74.1L133.66 75.06C133.012 75.156 132.208 75.228 131.332 75.228C129.448 75.228 128.416 74.652 128.416 73.464C128.416 73.008 128.488 72.552 128.596 72.048L129.484 72.132Z" fill="#61615B"/>
</g>
<defs>
<clipPath id="clip0_5_4">
<rect width="249.717" height="87" fill="white"/>
</clipPath>
</defs>
</svg>
